<svg xmlns="http://www.w3.org/2000/svg" viewBox="0 0 48 48">
  <circle cx="24" cy="24" r="24" fill="#25D366"/>
  <path fill="#fff" d="M24 10.5C16.56 10.5 10.5 16.56 10.5 24c0 2.39.65 4.62 1.77 6.55L10.5 37.5l7.17-1.74A13.44 13.44 0 0 0 24 37.5c7.44 0 13.5-6.06 13.5-13.5S31.44 10.5 24 10.5zm6.58 18.44c-.27.76-1.59 1.46-2.18 1.55-.55.09-1.25.13-2.01-.13a18.6 18.6 0 0 1-1.82-.67c-3.2-1.38-5.29-4.6-5.45-4.81-.16-.21-1.28-1.7-1.28-3.24s.81-2.3 1.1-2.61c.28-.31.61-.39.82-.39l.59.01c.19 0 .44-.07.69.53.26.63.89 2.17.97 2.33.08.16.13.34.03.55-.11.21-.16.34-.31.52-.16.18-.33.4-.47.54-.16.15-.32.32-.14.63.18.31.82 1.35 1.76 2.19 1.21 1.08 2.23 1.41 2.54 1.57.31.16.49.13.67-.08.18-.21.77-.9 .97-1.21.2-.31.4-.26.68-.16.27.1 1.73.82 2.03.97.3.15.5.22.57.34.08.12.08.7-.19 1.47z"/>
</svg>
